<svg width="24" height="24" viewBox="0 0 24 24" xmlns="http://www.w3.org/2000/svg">
    <path d="M20.2541 4.24106C20.5522 4.53326 20.5793 4.99051 20.3354 5.31272L20.2541 5.40503L13.5266 12L20.2541 18.595C20.5522 18.8872 20.5793 19.3444 20.3354 19.6666L20.2541 19.7589C19.956 20.0511 19.4896 20.0777 19.161 19.8386L19.0668 19.7589L11.7459 12.582C11.4478 12.2898 11.4207 11.8325 11.6646 11.5103L11.7459 11.418L19.0668 4.24106C19.3947 3.91964 19.9262 3.91964 20.2541 4.24106Z"/>
    <path d="M12.7541 4.24106C13.0522 4.53326 13.0793 4.99051 12.8354 5.31272L12.7541 5.40503L6.02658 12L12.7541 18.595C13.0522 18.8872 13.0793 19.3444 12.8354 19.6666L12.7541 19.7589C12.456 20.0511 11.9896 20.0777 11.661 19.8386L11.5668 19.7589L4.2459 12.582C3.94784 12.2898 3.92074 11.8325 4.16461 11.5103L4.2459 11.418L11.5668 4.24106C11.8947 3.91964 12.4262 3.91964 12.7541 4.24106Z"/>
</svg>